<mxfile host="app.diagrams.net" modified="2023-10-07T15:29:24.233Z" agent="Mozilla/5.0 (Windows NT 10.0; Win64; x64) AppleWebKit/537.36 (KHTML, like Gecko) Chrome/117.0.0.0 Safari/537.36 Edg/117.0.2045.47" etag="jn954AfuEJS7zxDbl4Qv" version="22.0.4" type="github">
  <diagram id="R2lEEEUBdFMjLlhIrx00" name="Page-1">
    <mxGraphModel dx="1246" dy="1787" grid="1" gridSize="10" guides="1" tooltips="1" connect="1" arrows="1" fold="1" page="1" pageScale="1" pageWidth="850" pageHeight="1100" math="0" shadow="0" extFonts="Permanent Marker^https://fonts.googleapis.com/css?family=Permanent+Marker">
      <root>
        <mxCell id="0" />
        <mxCell id="1" parent="0" />
        <mxCell id="C-vyLk0tnHw3VtMMgP7b-1" value="" style="edgeStyle=entityRelationEdgeStyle;endArrow=ERzeroToMany;startArrow=ERone;endFill=1;startFill=0;" parent="1" source="C-vyLk0tnHw3VtMMgP7b-24" edge="1">
          <mxGeometry width="100" height="100" relative="1" as="geometry">
            <mxPoint x="340" y="720" as="sourcePoint" />
            <mxPoint x="450" y="195" as="targetPoint" />
          </mxGeometry>
        </mxCell>
        <mxCell id="C-vyLk0tnHw3VtMMgP7b-12" value="" style="edgeStyle=entityRelationEdgeStyle;endArrow=ERzeroToMany;startArrow=ERone;endFill=1;startFill=0;" parent="1" target="C-vyLk0tnHw3VtMMgP7b-17" edge="1">
          <mxGeometry width="100" height="100" relative="1" as="geometry">
            <mxPoint x="700" y="165" as="sourcePoint" />
            <mxPoint x="460" y="205" as="targetPoint" />
          </mxGeometry>
        </mxCell>
        <mxCell id="3cIZsuR69LrdfroqvClo-22" style="edgeStyle=orthogonalEdgeStyle;rounded=0;orthogonalLoop=1;jettySize=auto;html=1;" edge="1" parent="1" source="3cIZsuR69LrdfroqvClo-1">
          <mxGeometry relative="1" as="geometry">
            <mxPoint x="280.0000000000002" y="120" as="targetPoint" />
          </mxGeometry>
        </mxCell>
        <mxCell id="3cIZsuR69LrdfroqvClo-23" style="edgeStyle=orthogonalEdgeStyle;rounded=0;orthogonalLoop=1;jettySize=auto;html=1;" edge="1" parent="1" source="3cIZsuR69LrdfroqvClo-1">
          <mxGeometry relative="1" as="geometry">
            <mxPoint x="80" y="120" as="targetPoint" />
          </mxGeometry>
        </mxCell>
        <mxCell id="3cIZsuR69LrdfroqvClo-24" style="edgeStyle=orthogonalEdgeStyle;rounded=0;orthogonalLoop=1;jettySize=auto;html=1;entryX=0.5;entryY=0;entryDx=0;entryDy=0;" edge="1" parent="1" source="3cIZsuR69LrdfroqvClo-1" target="3cIZsuR69LrdfroqvClo-5">
          <mxGeometry relative="1" as="geometry" />
        </mxCell>
        <mxCell id="3cIZsuR69LrdfroqvClo-1" value="&lt;h3 style=&quot;box-sizing: border-box; margin: 0px 0px 25px; line-height: inherit; font-size: 21px; overflow-wrap: break-word; padding: 0px; border: 0px; font-variant-numeric: inherit; font-variant-east-asian: inherit; font-variant-alternates: inherit; font-variant-position: inherit; font-stretch: inherit; font-family: Lato, sans-serif; font-optical-sizing: inherit; font-kerning: inherit; font-feature-settings: inherit; font-variation-settings: inherit; vertical-align: middle; color: rgb(68, 68, 68); background-color: rgb(255, 255, 255); text-align: justify;&quot;&gt;My SQL&lt;/h3&gt;" style="rounded=0;whiteSpace=wrap;html=1;" vertex="1" parent="1">
          <mxGeometry x="110" y="30" width="120" height="60" as="geometry" />
        </mxCell>
        <mxCell id="3cIZsuR69LrdfroqvClo-2" value="Es un SGBD&amp;nbsp;&lt;span style=&quot;box-sizing: border-box; font-weight: 700; margin: 0px; padding: 0px; border: 0px; font-variant-numeric: inherit; font-variant-east-asian: inherit; font-variant-alternates: inherit; font-variant-position: inherit; font-stretch: inherit; font-size: 16px; line-height: inherit; font-family: Lato, sans-serif; font-optical-sizing: inherit; font-kerning: inherit; font-feature-settings: inherit; font-variation-settings: inherit; vertical-align: initial; color: rgb(75, 75, 75); text-align: justify; background-color: rgb(255, 255, 255);&quot;&gt;multihilo y multiusuario&lt;/span&gt;" style="rounded=0;whiteSpace=wrap;html=1;" vertex="1" parent="1">
          <mxGeometry x="20" y="130" width="120" height="60" as="geometry" />
        </mxCell>
        <mxCell id="3cIZsuR69LrdfroqvClo-3" value="Es el más usado en aplicaciones creadas como software libre" style="rounded=0;whiteSpace=wrap;html=1;" vertex="1" parent="1">
          <mxGeometry x="210" y="130" width="120" height="60" as="geometry" />
        </mxCell>
        <mxCell id="3cIZsuR69LrdfroqvClo-25" style="edgeStyle=orthogonalEdgeStyle;rounded=0;orthogonalLoop=1;jettySize=auto;html=1;entryX=0.5;entryY=0;entryDx=0;entryDy=0;" edge="1" parent="1" source="3cIZsuR69LrdfroqvClo-4" target="3cIZsuR69LrdfroqvClo-6">
          <mxGeometry relative="1" as="geometry" />
        </mxCell>
        <mxCell id="3cIZsuR69LrdfroqvClo-4" value="&lt;ul style=&quot;box-sizing: border-box; margin: 0px 0px 20px; overflow-wrap: break-word; padding: 0px 0px 0px 1em; border: 0px; font-variant-numeric: inherit; font-variant-east-asian: inherit; font-variant-alternates: inherit; font-variant-position: inherit; font-stretch: inherit; font-size: 16px; line-height: inherit; font-family: Lato, sans-serif; font-optical-sizing: inherit; font-kerning: inherit; font-feature-settings: inherit; font-variation-settings: inherit; vertical-align: middle; list-style-position: initial; list-style-image: initial; color: rgb(75, 75, 75); background-color: rgb(255, 255, 255); text-align: justify;&quot;&gt;&lt;li style=&quot;box-sizing: border-box; margin: 0px; padding: 0px; border: 0px; font: inherit; vertical-align: middle;&quot;&gt;Soporte SSL&lt;/li&gt;&lt;li style=&quot;box-sizing: border-box; margin: 0px; padding: 0px; border: 0px; font: inherit; vertical-align: middle;&quot;&gt;Facilidad de uso y gran rendimiento&lt;/li&gt;&lt;li style=&quot;box-sizing: border-box; margin: 0px; padding: 0px; border: 0px; font: inherit; vertical-align: middle;&quot;&gt;Facilidad para instalar y configurar&lt;/li&gt;&lt;li style=&quot;box-sizing: border-box; margin: 0px; padding: 0px; border: 0px; font: inherit; vertical-align: middle;&quot;&gt;Soporte multiplataforma&lt;/li&gt;&lt;/ul&gt;" style="rounded=0;whiteSpace=wrap;html=1;" vertex="1" parent="1">
          <mxGeometry x="50" y="240" width="240" height="220" as="geometry" />
        </mxCell>
        <mxCell id="3cIZsuR69LrdfroqvClo-5" value="Ventajas" style="text;html=1;strokeColor=none;fillColor=none;align=center;verticalAlign=middle;whiteSpace=wrap;rounded=0;" vertex="1" parent="1">
          <mxGeometry x="140" y="200" width="60" height="30" as="geometry" />
        </mxCell>
        <mxCell id="3cIZsuR69LrdfroqvClo-6" value="Desventajas" style="text;html=1;strokeColor=none;fillColor=none;align=center;verticalAlign=middle;whiteSpace=wrap;rounded=0;" vertex="1" parent="1">
          <mxGeometry x="140" y="500" width="60" height="30" as="geometry" />
        </mxCell>
        <mxCell id="3cIZsuR69LrdfroqvClo-7" value="Escalabilidad&lt;br&gt;&lt;br&gt;No trabaja de manera eficiente con bases de datos muy grandes que superan un determinado tamaño" style="rounded=0;whiteSpace=wrap;html=1;" vertex="1" parent="1">
          <mxGeometry x="110" y="550" width="120" height="190" as="geometry" />
        </mxCell>
        <mxCell id="3cIZsuR69LrdfroqvClo-19" style="edgeStyle=orthogonalEdgeStyle;rounded=0;orthogonalLoop=1;jettySize=auto;html=1;" edge="1" parent="1" source="3cIZsuR69LrdfroqvClo-8">
          <mxGeometry relative="1" as="geometry">
            <mxPoint x="584.9999999999998" y="10" as="targetPoint" />
          </mxGeometry>
        </mxCell>
        <mxCell id="3cIZsuR69LrdfroqvClo-20" style="edgeStyle=orthogonalEdgeStyle;rounded=0;orthogonalLoop=1;jettySize=auto;html=1;" edge="1" parent="1" source="3cIZsuR69LrdfroqvClo-8">
          <mxGeometry relative="1" as="geometry">
            <mxPoint x="930" y="10" as="targetPoint" />
          </mxGeometry>
        </mxCell>
        <mxCell id="3cIZsuR69LrdfroqvClo-21" style="edgeStyle=orthogonalEdgeStyle;rounded=0;orthogonalLoop=1;jettySize=auto;html=1;" edge="1" parent="1" source="3cIZsuR69LrdfroqvClo-8">
          <mxGeometry relative="1" as="geometry">
            <mxPoint x="170" y="20" as="targetPoint" />
          </mxGeometry>
        </mxCell>
        <mxCell id="3cIZsuR69LrdfroqvClo-8" value="BASES DE DATOS" style="rounded=0;whiteSpace=wrap;html=1;" vertex="1" parent="1">
          <mxGeometry x="460" y="-200" width="250" height="100" as="geometry" />
        </mxCell>
        <mxCell id="3cIZsuR69LrdfroqvClo-26" style="edgeStyle=orthogonalEdgeStyle;rounded=0;orthogonalLoop=1;jettySize=auto;html=1;entryX=0.5;entryY=0;entryDx=0;entryDy=0;" edge="1" parent="1" source="3cIZsuR69LrdfroqvClo-9" target="3cIZsuR69LrdfroqvClo-11">
          <mxGeometry relative="1" as="geometry" />
        </mxCell>
        <mxCell id="3cIZsuR69LrdfroqvClo-9" value="&lt;br&gt;&lt;h3 style=&quot;box-sizing: border-box; margin: 0px 0px 25px; font-weight: 700; line-height: inherit; font-size: 21px; overflow-wrap: break-word; padding: 0px; border: 0px; font-style: normal; font-variant-ligatures: normal; font-variant-caps: normal; font-variant-numeric: inherit; font-variant-east-asian: inherit; font-variant-alternates: inherit; font-variant-position: inherit; font-stretch: inherit; font-family: Lato, sans-serif; font-optical-sizing: inherit; font-kerning: inherit; font-feature-settings: inherit; font-variation-settings: inherit; vertical-align: middle; color: rgb(68, 68, 68); letter-spacing: normal; orphans: 2; text-indent: 0px; text-transform: none; widows: 2; word-spacing: 0px; -webkit-text-stroke-width: 0px; background-color: rgb(255, 255, 255); text-decoration-thickness: initial; text-decoration-style: initial; text-decoration-color: initial; text-align: justify;&quot;&gt;MariaDB&lt;/h3&gt;" style="rounded=0;whiteSpace=wrap;html=1;" vertex="1" parent="1">
          <mxGeometry x="520" y="20" width="130" height="60" as="geometry" />
        </mxCell>
        <mxCell id="3cIZsuR69LrdfroqvClo-28" style="edgeStyle=orthogonalEdgeStyle;rounded=0;orthogonalLoop=1;jettySize=auto;html=1;entryX=0.5;entryY=0;entryDx=0;entryDy=0;" edge="1" parent="1" source="3cIZsuR69LrdfroqvClo-10" target="3cIZsuR69LrdfroqvClo-12">
          <mxGeometry relative="1" as="geometry" />
        </mxCell>
        <mxCell id="3cIZsuR69LrdfroqvClo-10" value="&lt;ul style=&quot;box-sizing: border-box; margin: 0px 0px 20px; overflow-wrap: break-word; padding: 0px 0px 0px 1em; border: 0px; font-variant-numeric: inherit; font-variant-east-asian: inherit; font-variant-alternates: inherit; font-variant-position: inherit; font-stretch: inherit; font-size: 16px; line-height: inherit; font-family: Lato, sans-serif; font-optical-sizing: inherit; font-kerning: inherit; font-feature-settings: inherit; font-variation-settings: inherit; vertical-align: middle; list-style-position: initial; list-style-image: initial; color: rgb(75, 75, 75); background-color: rgb(255, 255, 255); text-align: justify;&quot;&gt;&lt;li style=&quot;box-sizing: border-box; margin: 0px; padding: 0px; border: 0px; font: inherit; vertical-align: middle;&quot;&gt;&lt;span style=&quot;font-family: inherit; font-size: inherit; font-style: inherit; font-variant-ligatures: inherit; font-variant-caps: inherit; font-weight: inherit;&quot;&gt;Aumento de motores de almacenamiento&lt;/span&gt;&lt;br&gt;&lt;/li&gt;&lt;li style=&quot;box-sizing: border-box; margin: 0px; padding: 0px; border: 0px; font: inherit; vertical-align: middle;&quot;&gt;Gran escalabilidad&lt;/li&gt;&lt;li style=&quot;box-sizing: border-box; margin: 0px; padding: 0px; border: 0px; font: inherit; vertical-align: middle;&quot;&gt;Seguridad y rapidez en transacciones&lt;/li&gt;&lt;li style=&quot;box-sizing: border-box; margin: 0px; padding: 0px; border: 0px; font: inherit; vertical-align: middle;&quot;&gt;Extensiones y nuevas características relacionadas con su aplicación para Bases de datos NoSQL.&lt;/li&gt;&lt;/ul&gt;" style="rounded=0;whiteSpace=wrap;html=1;" vertex="1" parent="1">
          <mxGeometry x="477.5" y="230" width="215" height="230" as="geometry" />
        </mxCell>
        <mxCell id="3cIZsuR69LrdfroqvClo-27" style="edgeStyle=orthogonalEdgeStyle;rounded=0;orthogonalLoop=1;jettySize=auto;html=1;entryX=0.5;entryY=0;entryDx=0;entryDy=0;" edge="1" parent="1" source="3cIZsuR69LrdfroqvClo-11" target="3cIZsuR69LrdfroqvClo-10">
          <mxGeometry relative="1" as="geometry" />
        </mxCell>
        <mxCell id="3cIZsuR69LrdfroqvClo-11" value="Ventajas" style="text;html=1;strokeColor=none;fillColor=none;align=center;verticalAlign=middle;whiteSpace=wrap;rounded=0;" vertex="1" parent="1">
          <mxGeometry x="555" y="120" width="60" height="30" as="geometry" />
        </mxCell>
        <mxCell id="3cIZsuR69LrdfroqvClo-29" style="edgeStyle=orthogonalEdgeStyle;rounded=0;orthogonalLoop=1;jettySize=auto;html=1;" edge="1" parent="1" source="3cIZsuR69LrdfroqvClo-12" target="3cIZsuR69LrdfroqvClo-13">
          <mxGeometry relative="1" as="geometry" />
        </mxCell>
        <mxCell id="3cIZsuR69LrdfroqvClo-12" value="Desventajas" style="text;html=1;strokeColor=none;fillColor=none;align=center;verticalAlign=middle;whiteSpace=wrap;rounded=0;" vertex="1" parent="1">
          <mxGeometry x="555" y="490" width="60" height="30" as="geometry" />
        </mxCell>
        <mxCell id="3cIZsuR69LrdfroqvClo-13" value="Incompatibilidades en la migración de MariaDB y MySQL&lt;br&gt;&lt;br&gt;Atrasos en la liberación de versiones estables" style="rounded=0;whiteSpace=wrap;html=1;" vertex="1" parent="1">
          <mxGeometry x="510" y="540" width="150" height="190" as="geometry" />
        </mxCell>
        <mxCell id="3cIZsuR69LrdfroqvClo-14" value="SQLite" style="rounded=0;whiteSpace=wrap;html=1;" vertex="1" parent="1">
          <mxGeometry x="870" y="20" width="120" height="60" as="geometry" />
        </mxCell>
        <mxCell id="3cIZsuR69LrdfroqvClo-31" style="edgeStyle=orthogonalEdgeStyle;rounded=0;orthogonalLoop=1;jettySize=auto;html=1;entryX=0.5;entryY=0;entryDx=0;entryDy=0;" edge="1" parent="1" source="3cIZsuR69LrdfroqvClo-15" target="3cIZsuR69LrdfroqvClo-16">
          <mxGeometry relative="1" as="geometry" />
        </mxCell>
        <mxCell id="3cIZsuR69LrdfroqvClo-15" value="&lt;ul style=&quot;box-sizing: border-box; margin: 0px 0px 20px; overflow-wrap: break-word; padding: 0px 0px 0px 1em; border: 0px; font-variant-numeric: inherit; font-variant-east-asian: inherit; font-variant-alternates: inherit; font-variant-position: inherit; font-stretch: inherit; font-size: 16px; line-height: inherit; font-family: Lato, sans-serif; font-optical-sizing: inherit; font-kerning: inherit; font-feature-settings: inherit; font-variation-settings: inherit; vertical-align: middle; list-style-position: initial; list-style-image: initial; color: rgb(75, 75, 75); background-color: rgb(255, 255, 255); text-align: justify;&quot;&gt;&lt;li style=&quot;box-sizing: border-box; margin: 0px; padding: 0px; border: 0px; font: inherit; vertical-align: middle;&quot;&gt;El tamaño, al tratarse de una biblioteca, es mucho menor que cualquier SGBD&lt;/li&gt;&lt;li style=&quot;box-sizing: border-box; margin: 0px; padding: 0px; border: 0px; font: inherit; vertical-align: middle;&quot;&gt;Reúne los cuatro criterios ACID (Atomicidad, Consistencia, Aislamiento y Durabilidad)&lt;br&gt;&lt;/li&gt;&lt;li style=&quot;box-sizing: border-box; margin: 0px; padding: 0px; border: 0px; font: inherit; vertical-align: middle;&quot;&gt;Gran portabilidad y rendimiento&lt;/li&gt;&lt;/ul&gt;" style="rounded=0;whiteSpace=wrap;html=1;" vertex="1" parent="1">
          <mxGeometry x="805" y="170" width="250" height="240" as="geometry" />
        </mxCell>
        <mxCell id="3cIZsuR69LrdfroqvClo-32" style="edgeStyle=orthogonalEdgeStyle;rounded=0;orthogonalLoop=1;jettySize=auto;html=1;entryX=0.5;entryY=0;entryDx=0;entryDy=0;" edge="1" parent="1" source="3cIZsuR69LrdfroqvClo-16" target="3cIZsuR69LrdfroqvClo-18">
          <mxGeometry relative="1" as="geometry" />
        </mxCell>
        <mxCell id="3cIZsuR69LrdfroqvClo-16" value="Desventajas" style="text;html=1;strokeColor=none;fillColor=none;align=center;verticalAlign=middle;whiteSpace=wrap;rounded=0;" vertex="1" parent="1">
          <mxGeometry x="900" y="470" width="60" height="30" as="geometry" />
        </mxCell>
        <mxCell id="3cIZsuR69LrdfroqvClo-17" value="Ventajas" style="text;html=1;strokeColor=none;fillColor=none;align=center;verticalAlign=middle;whiteSpace=wrap;rounded=0;" vertex="1" parent="1">
          <mxGeometry x="900" y="120" width="60" height="30" as="geometry" />
        </mxCell>
        <mxCell id="3cIZsuR69LrdfroqvClo-18" value="escalabilidad" style="rounded=0;whiteSpace=wrap;html=1;" vertex="1" parent="1">
          <mxGeometry x="875" y="560" width="110" height="70" as="geometry" />
        </mxCell>
      </root>
    </mxGraphModel>
  </diagram>
</mxfile>
